<?xml version="1.0" encoding="UTF-8" standalone="no"?>
<svg
   width="32"
   height="32"
   fill="#000000"
   viewBox="0 0 256 256"
   version="1.1"
   id="svg1"
   sodipodi:docname="car-red.svg"
   inkscape:version="1.3.2 (091e20ef0f, 2023-11-25)"
   xmlns:inkscape="http://www.inkscape.org/namespaces/inkscape"
   xmlns:sodipodi="http://sodipodi.sourceforge.net/DTD/sodipodi-0.dtd"
   xmlns="http://www.w3.org/2000/svg"
   xmlns:svg="http://www.w3.org/2000/svg">
  <defs
     id="defs1" />
  <sodipodi:namedview
     id="namedview1"
     pagecolor="#ffffff"
     bordercolor="#000000"
     borderopacity="0.25"
     inkscape:showpageshadow="2"
     inkscape:pageopacity="0.0"
     inkscape:pagecheckerboard="0"
     inkscape:deskcolor="#d1d1d1"
     inkscape:zoom="12.578125"
     inkscape:cx="11.329193"
     inkscape:cy="22.53913"
     inkscape:window-width="1866"
     inkscape:window-height="1011"
     inkscape:window-x="0"
     inkscape:window-y="0"
     inkscape:window-maximized="1"
     inkscape:current-layer="svg1" />
  <circle
     style="fill:#ff0000;stroke-width:599.928;stroke-linecap:square;stroke-linejoin:round;fill-opacity:0.76976329"
     id="path2"
     cx="128"
     cy="128"
     r="128" />
  <path
     d="m 220.09527,111.55441 h -8.88061 L 188.37174,60.161963 A 13.156468,13.156468 0 0 0 176.35002,52.35031 H 79.649982 A 13.156468,13.156468 0 0 0 67.62826,60.161963 L 44.785343,111.55441 h -8.880616 a 6.5782339,6.5782339 0 0 0 0,13.15647 h 6.578234 v 65.78234 a 13.156468,13.156468 0 0 0 13.156467,13.15647 H 75.37413 a 13.156468,13.156468 0 0 0 13.156468,-13.15647 v -6.57823 H 167.4694 v 6.57823 a 13.156468,13.156468 0 0 0 13.15647,13.15647 h 19.7347 a 13.156468,13.156468 0 0 0 13.15647,-13.15647 v -65.78234 h 6.57823 a 6.5782339,6.5782339 0 0 0 0,-13.15647 z M 88.530598,151.02382 H 68.795896 a 6.578235,6.578235 0 0 1 0,-13.15647 h 19.734702 a 6.578235,6.578235 0 0 1 0,13.15647 z m 98.673502,0 h -19.7347 a 6.578235,6.578235 0 0 1 0,-13.15647 h 19.7347 a 6.578235,6.578235 0 0 1 0,13.15647 z M 59.183452,111.55441 79.649982,65.506778 h 96.700038 l 20.46653,46.047632 z"
     id="path1"
     style="stroke-width:0.822279" />
</svg>
