<?xml version="1.0" encoding="UTF-8" standalone="no"?>
<svg
   width="32"
   height="32"
   fill="#000000"
   viewBox="0 0 256 256"
   version="1.1"
   id="svg1"
   sodipodi:docname="user-red.svg"
   inkscape:version="1.3.2 (091e20ef0f, 2023-11-25)"
   xmlns:inkscape="http://www.inkscape.org/namespaces/inkscape"
   xmlns:sodipodi="http://sodipodi.sourceforge.net/DTD/sodipodi-0.dtd"
   xmlns="http://www.w3.org/2000/svg"
   xmlns:svg="http://www.w3.org/2000/svg">
  <defs
     id="defs1" />
  <sodipodi:namedview
     id="namedview1"
     pagecolor="#ffffff"
     bordercolor="#000000"
     borderopacity="0.25"
     inkscape:showpageshadow="2"
     inkscape:pageopacity="0.0"
     inkscape:pagecheckerboard="0"
     inkscape:deskcolor="#d1d1d1"
     inkscape:zoom="12.578125"
     inkscape:cx="13.396273"
     inkscape:cy="21.664596"
     inkscape:window-width="1866"
     inkscape:window-height="1011"
     inkscape:window-x="0"
     inkscape:window-y="0"
     inkscape:window-maximized="1"
     inkscape:current-layer="svg1" />
  <circle
     style="fill:#ff0000;fill-opacity:0.76862746;stroke-width:599.928;stroke-linecap:square;stroke-linejoin:round"
     id="path2"
     cx="128"
     cy="128"
     r="128" />
  <path
     d="m 178.43664,185.10353 a 6.1016196,6.1016196 0 0 1 -4.67537,10.02954 H 45.627258 A 6.1016196,6.1016196 0 0 1 40.959519,185.10353 C 52.354293,171.54268 66.525305,161.90976 82.27511,156.75388 a 51.863767,51.863767 0 1 1 54.8383,0 c 15.74981,5.15588 29.92082,14.7888 41.32323,28.34965 z M 177.468,77.211644 a 6.1016196,6.1016196 0 0 0 -3.2186,8.008376 70.366928,70.366928 0 0 1 0,55.08237 6.1045091,6.1045091 0 1 0 11.22698,4.7974 82.646438,82.646438 0 0 0 0,-64.677168 6.1016196,6.1016196 0 0 0 -8.00838,-3.210978 z m 30.39369,-6.513479 a 6.1016196,6.1016196 0 1 0 -11.21172,4.805026 94.903067,94.903067 0 0 1 0,74.516029 6.1016196,6.1016196 0 1 0 11.21172,4.80502 107.03766,107.03766 0 0 0 0,-84.126075 z"
     id="path1"
     style="stroke-width:0.762702" />
</svg>
